<svg width="19" height="18" viewBox="0 0 19 18" fill="none" xmlns="http://www.w3.org/2000/svg">
<path d="M15.6939 11.3915C14.7549 10.4525 13.6372 9.75741 12.4178 9.33662C13.7238 8.43709 14.5819 6.93164 14.5819 5.22936C14.5819 2.48112 12.346 0.245239 9.59775 0.245239C6.84951 0.245239 4.61363 2.48112 4.61363 5.22936C4.61363 6.93164 5.47167 8.43709 6.77775 9.33662C5.55832 9.75741 4.44066 10.4525 3.50166 11.3915C1.87333 13.0199 0.976562 15.1848 0.976562 17.4876H2.32362C2.32362 13.4766 5.58678 10.2135 9.59775 10.2135C13.6087 10.2135 16.8719 13.4766 16.8719 17.4876H18.2189C18.2189 15.1848 17.3222 13.0199 15.6939 11.3915ZM9.59775 8.86643C7.59228 8.86643 5.96069 7.23487 5.96069 5.22936C5.96069 3.22386 7.59228 1.5923 9.59775 1.5923C11.6032 1.5923 13.2348 3.22386 13.2348 5.22936C13.2348 7.23487 11.6032 8.86643 9.59775 8.86643Z" fill="white"/>
</svg>
