<svg width="10" height="13" viewBox="0 0 10 13" fill="none" xmlns="http://www.w3.org/2000/svg">
<path d="M9.14468 8.81056C8.47903 8.69403 7.84367 8.4755 7.26015 8.16239C6.97478 8.00575 6.58507 8.0354 6.36654 8.19321L4.98249 8.90205C3.69724 7.89707 2.97677 6.87117 2.47664 5.33339L3.58078 4.29956C3.85417 4.1079 3.99707 3.78303 3.95282 3.447C3.85627 2.7884 3.86621 2.11684 3.98279 1.45091C4.06704 0.969836 3.74417 0.509943 3.26313 0.42573L1.26647 0.07619C0.78542 -0.00802282 0.325528 0.31484 0.241314 0.795886C-0.723989 6.30994 2.97662 11.5812 8.49067 12.5465C8.97171 12.6307 9.4316 12.3078 9.51582 11.8268L9.86438 9.83568C9.94856 9.35466 9.6257 8.89476 9.14468 8.81056Z" fill="white"/>
</svg>
